<?xml version="1.0" encoding="UTF-8"?>
<svg width="16px" height="16px" viewBox="0 0 16 16" version="1.1" xmlns="http://www.w3.org/2000/svg" xmlns:xlink="http://www.w3.org/1999/xlink">
    <title>Shape</title>
    <g id="Marketplace-Final" stroke="none" stroke-width="1" fill="none" fill-rule="evenodd">
        <g id="Detail" transform="translate(-1131.000000, -739.000000)" fill="#686371" stroke="#676370" stroke-width="0.5">
            <g id="Group-10" transform="translate(1132.000000, 738.000000)">
                <path d="M3.71155631,2.00025937 C3.54946492,2.01805698 3.42783802,2.15675432 3.43135968,2.31978184 L3.43135968,3.23902341 L1.76001137,3.23902341 C0.795557662,3.23902341 0.000179972433,4.03258589 0.000179972433,4.99885488 L0.000179972433,6.84717106 L0.000179972433,6.8864969 C-5.99908089e-05,6.89468404 -5.99908089e-05,6.90288055 0.000179972433,6.91106768 L0.000179972433,14.0880371 C0.000179972433,15.0543045 0.795139235,15.8478686 1.76001137,15.8478686 L12.0879607,15.8478686 C13.0528312,15.8478686 13.8428764,15.0543045 13.8428764,14.0880371 L13.8428764,6.93073061 C13.8430813,6.9241779 13.8430813,6.91762039 13.8428764,6.91106768 C13.8435038,6.89960885 13.8435038,6.88812427 13.8428764,6.87666544 L13.8428764,4.99885488 C13.8428764,4.03258589 13.0524128,3.23902341 12.0879607,3.23902341 L10.3625393,3.23902341 L10.3625393,2.31978184 C10.3638802,2.23463521 10.3306471,2.15258199 10.2704319,2.09236677 C10.2102167,2.03215154 10.1281635,1.99891844 10.0430168,2.00025937 C9.95957472,2.00155316 9.88006532,2.03594636 9.82198485,2.09587064 C9.76390439,2.15579493 9.73201205,2.23634004 9.73332582,2.31978184 L9.73332582,3.23902341 L4.06057317,3.23902341 L4.06057317,2.31978184 C4.0619141,2.23463521 4.028681,2.15258199 3.96846577,2.09236677 C3.90825055,2.03215154 3.82619732,1.99891844 3.7410507,2.00025937 C3.73122464,1.99991354 3.72138237,1.99991354 3.71155631,2.00025937 L3.71155631,2.00025937 Z M1.76001137,3.8682369 L3.43135968,3.8682369 L3.43135968,4.78747847 C3.43111307,4.90004082 3.49102279,5.00415839 3.58846374,5.06051087 C3.6859047,5.11686336 3.80602815,5.11686336 3.90346911,5.06051087 C4.00091007,5.00415839 4.06081978,4.90004082 4.06057317,4.78747847 L4.06057317,3.8682369 L9.73332582,3.8682369 L9.73332582,4.78747847 C9.73307921,4.90004082 9.79298892,5.00415839 9.89042988,5.06051087 C9.98787084,5.11686336 10.1079943,5.11686336 10.2054352,5.06051087 C10.3028762,5.00415839 10.3627859,4.90004082 10.3625393,4.78747847 L10.3625393,3.8682369 L12.0879607,3.8682369 C12.7086263,3.8682369 13.2136629,4.37507308 13.2136629,4.99885488 L13.2136629,6.59646094 L0.629393456,6.59646094 L0.629393456,4.99885488 C0.629393456,4.37507308 1.13934418,3.8682369 1.76001137,3.8682369 Z M0.629393456,7.22567443 L13.2136629,7.22567443 L13.2136629,14.0880371 C13.2136629,14.7118236 12.7082078,15.2186551 12.0879607,15.2186551 L1.76001137,15.2186551 C1.13976261,15.2186551 0.629393456,14.7118236 0.629393456,14.0880371 L0.629393456,7.22567443 Z M4.27777778,9.77777778 C4.92210999,9.77777778 5.44444444,10.3001122 5.44444444,10.9444444 C5.44444444,11.5887767 4.92210999,12.1111111 4.27777778,12.1111111 C3.63344557,12.1111111 3.11111111,11.5887767 3.11111111,10.9444444 C3.11111111,10.3001122 3.63344557,9.77777778 4.27777778,9.77777778 Z M9.72222222,9.77777778 C10.3665544,9.77777778 10.8888889,10.3001122 10.8888889,10.9444444 C10.8888889,11.5887767 10.3665544,12.1111111 9.72222222,12.1111111 C9.07789001,12.1111111 8.55555556,11.5887767 8.55555556,10.9444444 C8.55555556,10.3001122 9.07789001,9.77777778 9.72222222,9.77777778 Z" id="Shape"></path>
            </g>
        </g>
    </g>
</svg>