<?xml version="1.0" encoding="UTF-8"?>
<svg width="32px" height="32px" viewBox="0 0 32 32" version="1.1" xmlns="http://www.w3.org/2000/svg" xmlns:xlink="http://www.w3.org/1999/xlink">
    <title>Group 17 Copy</title>
    <g id="Marketplace-Final" stroke="none" stroke-width="1" fill="none" fill-rule="evenodd">
        <g id="Detail-Copy" transform="translate(-247.000000, -985.000000)">
            <g id="Group-25" transform="translate(247.000000, 904.000000)">
                <g id="Group-17-Copy" transform="translate(0.000000, 81.000000)">
                    <rect id="Rectangle-Copy-15" fill="#FF7C44" x="0" y="0" width="32" height="32" rx="5"></rect>
                    <path d="M23.0502971,16.1111008 L17.0502971,25.5811008 C16.8610351,25.8763962 16.5309001,26.0509504 16.1802971,26.0411008 C16.0875353,26.0557083 15.9930589,26.0557083 15.9002971,26.0411008 C15.459038,25.9127947 15.1620216,25.5002719 15.1802971,25.0411008 L15.1802971,19.0411008 L11.0002971,19.0411008 C10.2710774,19.0412087 9.59959528,18.6444176 9.247931,18.0055955 C8.89626673,17.3667734 8.92016454,16.5871836 9.31029711,15.9711008 L15.3102971,6.50110083 C15.5411105,6.10025468 16.0167108,5.91001455 16.4602971,6.04110083 C16.9015562,6.16940696 17.1985726,6.5819298 17.1802971,7.04110083 L17.1802971,13.0411008 L21.3602971,13.0411008 C22.0895168,13.0409929 22.7609989,13.437784 23.1126632,14.0766061 C23.4643275,14.7154282 23.4404297,15.495018 23.0502971,16.1111008 Z" id="Path" fill="#232123" fill-rule="nonzero"></path>
                </g>
            </g>
        </g>
    </g>
</svg>