<?xml version="1.0" encoding="UTF-8"?>
<svg width="32px" height="32px" viewBox="0 0 32 32" version="1.1" xmlns="http://www.w3.org/2000/svg" xmlns:xlink="http://www.w3.org/1999/xlink">
    <title>Group 19 Copy 3</title>
    <g id="Marketplace-Final" stroke="none" stroke-width="1" fill="none" fill-rule="evenodd">
        <g id="Browse" transform="translate(-930.000000, -319.000000)">
            <g id="Group-10" transform="translate(528.000000, 306.000000)">
                <g id="Group-19-Copy-3" transform="translate(402.000000, 13.000000)">
                    <rect id="Rectangle-Copy-14" fill="#F3BA2F" x="0" y="0" width="32" height="32" rx="5"></rect>
                    <path d="M22.2,13.7 C22,13.4 21.7,13.2 21.3,13.1 C20.9,13.1 20.6,13.3 20.4,13.6 L20.3,13.8 C20.3,13.9 20.2,14 20.2,14 C20.2,14 20.2,14 20.2,14 C19.7,14.7 19.1,15.1 18.1,15.2 C18.1,15.2 18,15.2 18,15.2 C18,15.2 18,15.2 18,15.1 L18,14.5 C17.9,13.4 17.9,12.4 17.7,11.3 C17.4,9.9 16.7,8.6 15.5,7.3 C15.2,7 14.6,6.9 14.2,7.2 C14,7.3 13.8,7.5 13.7,7.7 C13.2,9 12.4,10 11.4,11.2 L11.1,11.6 C9.6,13.5 8.9,15.6 9,17.8 C9.1,21.1 12.3,24 15.9,24 C15.9,24 15.9,24 15.9,24 C19.2,24 22.1,21.8 22.8,18.7 C23.2,17.1 23,15.2 22.2,13.7 Z" id="Path" fill="#232123" fill-rule="nonzero"></path>
                </g>
            </g>
        </g>
    </g>
</svg>