<?xml version="1.0" encoding="UTF-8"?>
<svg width="16px" height="16px" viewBox="0 0 16 16" version="1.1" xmlns="http://www.w3.org/2000/svg" xmlns:xlink="http://www.w3.org/1999/xlink">
    <title>Group 28</title>
    <defs>
        <polygon id="path-1" points="0 0 12 0 12 11 0 11"></polygon>
    </defs>
    <g id="Marketplace-Final" stroke="none" stroke-width="1" fill="none" fill-rule="evenodd">
        <g id="Detail" transform="translate(-646.000000, -1223.000000)">
            <g id="Group-28" transform="translate(646.000000, 1223.000000)">
                <circle id="Oval-Copy-2" fill="#F231AF" cx="8" cy="8" r="8"></circle>
                <g id="Group-6-Copy" transform="translate(2.000000, 3.000000)">
                    <path d="M8.51505425,7.71860412 L6.11627784,5.70843309 L5.75224107,6.36953285 L6.34626026,8.18576833 C6.43682924,8.46292468 6.30533962,8.72942566 6.04025502,8.81906301 C5.7750173,8.90858369 5.50507121,8.77733594 5.41714351,8.50819057 L3.92941599,3.95994089 C3.84378505,3.69822316 3.98289226,3.42907778 4.24797686,3.3395571 C4.5131763,3.2500753 4.77565791,3.38365634 4.86362389,3.65295727 L5.3646625,5.18456986 L6.64422684,2.69304042 C6.77816634,2.43412265 7.08133891,2.33180774 7.32349418,2.45523895 C7.57824335,2.59134772 7.66146269,2.87099292 7.51975248,3.13243843 L6.61444549,4.78814333 L9.11910264,6.94223968 C9.70431757,7.44545326 9.01949973,8.12941929 8.51505425,7.71860412" id="Fill-1" fill="#323132"></path>
                    <g id="Group-5">
                        <mask id="mask-2" fill="white">
                            <use xlink:href="#path-1"></use>
                        </mask>
                        <g id="Clip-4"></g>
                        <path d="M6.03875829,11 C5.36048622,11 4.64680574,10.8738077 3.97530912,10.6309119 C2.99952982,10.2780013 2.13633014,9.69331688 1.47914999,8.9401687 C0.489819803,7.80646039 -0.517769646,5.74344026 0.300260387,2.35363181 C0.363115104,2.09288628 0.622075009,1.93325014 0.878929549,1.99726015 C1.13559269,2.06119238 1.29265293,2.32438786 1.22972165,2.58513339 C0.660354375,4.94440398 0.994265277,6.91895341 2.19524208,8.29524645 C3.41290868,9.69071137 5.25747645,10.1558923 6.5451943,9.99777277 C7.79417342,9.8444754 8.93003702,9.32695095 9.74355009,8.54047557 C10.5936582,7.7186119 11.0430197,6.6614745 11.0430197,5.48323918 C11.0430197,2.99583189 9.0510381,0.972205528 6.60257506,0.972205528 C5.30965123,0.972205528 4.22890991,1.42964767 3.55940381,2.26033896 C2.9175737,3.05665307 2.70914256,4.13797894 2.95661865,5.38734082 C3.00879343,5.65049742 2.84105325,5.90680968 2.58194023,5.95977544 C2.32321,6.01293564 2.07060447,5.84233301 2.01850625,5.57913753 C1.71246273,4.0344585 1.98926081,2.67383742 2.81896605,1.64442732 C3.67362944,0.583984416 5.01734999,0 6.60257506,0 C9.57875742,0 12,2.45975776 12,5.48323918 C12,6.93415871 11.4478623,8.23489193 10.4032949,9.24474125 C9.44156418,10.1745197 8.11212183,10.7847537 6.65999411,10.9629784 C6.45795562,10.9877502 6.25002211,11 6.03875829,11" id="Fill-3" fill="#323132" mask="url(#mask-2)"></path>
                    </g>
                </g>
            </g>
        </g>
    </g>
</svg>