<?xml version="1.0" encoding="UTF-8"?>
<svg width="14px" height="16px" viewBox="0 0 14 16" version="1.1" xmlns="http://www.w3.org/2000/svg" xmlns:xlink="http://www.w3.org/1999/xlink">
    <title>download-save-arrow</title>
    <g id="Marketplace-Final" stroke="none" stroke-width="1" fill="none" fill-rule="evenodd">
        <g id="Detail" transform="translate(-539.000000, -1323.000000)" fill="#676370" fill-rule="nonzero">
            <g id="download-save-arrow" transform="translate(539.000000, 1323.000000)">
                <path d="M13,16 L1,16 C0.44771525,16 0,15.5522847 0,15 C0,14.4477153 0.44771525,14 1,14 L13,14 C13.5522847,14 14,14.4477153 14,15 C14,15.5522847 13.5522847,16 13,16 Z" id="Path"></path>
                <path d="M10.92,7.62 C10.7665964,7.24657449 10.4037019,7.00201515 10,7 L8,7 L8,1 C8,0.44771525 7.55228475,0 7,0 C6.44771525,0 6,0.44771525 6,1 L6,7 L4,7 C3.59629811,7.00201515 3.2334036,7.24657449 3.08,7.62 C2.92340327,7.9923971 3.00625544,8.4224393 3.29,8.71 L6.29,11.71 C6.38510371,11.8010406 6.49724868,11.8724056 6.62,11.92 C6.86203988,12.0269768 7.13796012,12.0269768 7.38,11.92 C7.50275132,11.8724056 7.61489629,11.8010406 7.71,11.71 L10.71,8.71 C10.9937446,8.4224393 11.0765967,7.9923971 10.92,7.62 L10.92,7.62 Z" id="Path"></path>
            </g>
        </g>
    </g>
</svg>