<?xml version="1.0" encoding="UTF-8"?>
<svg width="16px" height="16px" viewBox="0 0 16 16" version="1.1" xmlns="http://www.w3.org/2000/svg" xmlns:xlink="http://www.w3.org/1999/xlink">
    <title>cart-shopping-ecommerce-basket</title>
    <g id="Marketplace-Final" stroke="none" stroke-width="1" fill="none" fill-rule="evenodd">
        <g id="Detail" transform="translate(-538.000000, -1223.000000)" fill="#676370" fill-rule="nonzero">
            <g id="cart-shopping-ecommerce-basket" transform="translate(538.000000, 1223.000000)">
                <path d="M15.9793067,4.20001482 L15.9793067,4.30401469 L14.8040025,8.62400927 C14.5183193,9.67853679 13.552269,10.4084343 12.4533942,10.4000793 L6.29512232,10.4000793 C5.04181693,10.4050607 3.99290186,9.45648123 3.88011376,8.21600978 L3.3568619,2.32801717 C3.31926587,1.91452669 2.96962751,1.59833352 2.55185905,1.60001809 L0.805002855,1.60001809 C0.360412055,1.60001809 0,1.24184634 0,0.800019094 C0,0.358191849 0.360412055,0 0.805002855,0 L2.55185905,0 C3.80516444,-0.00503360824 4.85407952,0.943545904 4.96686761,2.18401736 L4.96686761,2.40001708 L14.377351,2.40001708 C14.8416217,2.39639642 15.284864,2.59213107 15.5933182,2.936985 C15.9017724,3.28183894 16.0454066,3.74223646 15.9873567,4.20001482 L15.9793067,4.20001482 Z" id="Path"></path>
                <ellipse id="Oval" cx="5.63501998" cy="14.0000025" rx="2.01250714" ry="1.99999749"></ellipse>
                <ellipse id="Oval" cx="12.0750428" cy="14.0000025" rx="2.01250714" ry="1.99999749"></ellipse>
            </g>
        </g>
    </g>
</svg>