<?xml version="1.0" encoding="UTF-8"?>
<svg width="14px" height="14px" viewBox="0 0 14 14" version="1.1" xmlns="http://www.w3.org/2000/svg" xmlns:xlink="http://www.w3.org/1999/xlink">
    <title>repeat-replay-arrow-loop-cycle</title>
    <g id="Marketplace-Final" stroke="none" stroke-width="1" fill="none" fill-rule="evenodd">
        <g id="Detail" transform="translate(-539.000000, -1274.000000)" fill="#676370" fill-rule="nonzero">
            <g id="repeat-replay-arrow-loop-cycle" transform="translate(539.000000, 1274.000000)">
                <path d="M13.7930612,2.30192305 L11.6942781,0.201764734 C11.4931023,0.00312856713 11.1922472,-0.0548723226 10.9317203,0.0547536522 C10.6704739,0.162144266 10.4993815,0.416189578 10.4979718,0.698802201 L10.4979718,2.09890774 L2.10283953,2.09890774 C0.943713657,2.09890774 0.00405647496,3.03918065 0.00405647496,4.19906606 L0.00405647496,6.29922437 C0.00405647496,6.68585284 0.317275536,6.99927714 0.703650827,6.99927714 C1.09002612,6.99927714 1.40324518,6.68585284 1.40324518,6.29922437 L1.40324518,4.19906606 C1.40324518,3.81243759 1.71646424,3.49901329 2.10283953,3.49901329 L10.4979718,3.49901329 L10.4979718,4.89911883 C10.4993815,5.18173145 10.6704739,5.43577676 10.9317203,5.54316738 C11.0147477,5.58235728 11.1057958,5.60153785 11.1975661,5.5991716 C11.3835204,5.60024741 11.5622515,5.52719673 11.6942781,5.39615629 L13.7930612,3.29599798 C13.9255032,3.16455145 14,2.98562086 14,2.79896051 C14,2.61230017 13.9255032,2.43336958 13.7930612,2.30192305 Z" id="Path"></path>
                <path d="M13.2963492,6.99927714 C12.9099739,6.99927714 12.5967548,7.31270144 12.5967548,7.69932991 L12.5967548,9.79948822 C12.5967548,10.1861167 12.2835358,10.499541 11.8971605,10.499541 L3.50202824,10.499541 L3.50202824,9.09943545 C3.50061845,8.81682283 3.32952611,8.56277752 3.06827974,8.4553869 C2.80775283,8.34576093 2.50689774,8.40376182 2.30572189,8.60239799 L0.206938837,10.7025563 C0.0744967758,10.8340028 0,11.0129334 0,11.1995938 C0,11.3862541 0.0744967758,11.5651847 0.206938837,11.6966312 L2.30572189,13.7967895 C2.43774852,13.92783 2.61647962,14.0008807 2.80243388,13.9998048 C2.89420425,14.0021711 2.98525231,13.9829905 3.06827974,13.9438006 C3.32952611,13.83641 3.50061845,13.5823647 3.50202824,13.2997521 L3.50202824,11.8996465 L11.8971605,11.8996465 C13.0562863,11.8996465 13.9959435,10.9593736 13.9959435,9.79948822 L13.9959435,7.69932991 C13.9959435,7.31270144 13.6827245,6.99927714 13.2963492,6.99927714 Z" id="Path"></path>
            </g>
        </g>
    </g>
</svg>